<svg width="16" height="16" fill="none" xmlns="http://www.w3.org/2000/svg"><path d="M8 15.333c4.043 0 7.333-3.29 7.333-7.334 0-.698-.098-1.385-.29-2.044a.61.61 0 10-1.174.343c.16.547.242 1.12.242 1.701a6.118 6.118 0 01-6.112 6.112 6.118 6.118 0 01-6.11-6.112 6.118 6.118 0 016.11-6.11 6.07 6.07 0 013.408 1.035.611.611 0 00.683-1.014A7.288 7.288 0 008 .666C3.955.666.665 3.956.665 7.999c0 4.044 3.29 7.334 7.333 7.334z" fill="#FF5A30"/><path d="M14.861 1.528L8 8.39 5.804 6.195a.667.667 0 00-.943.942l2.667 2.667a.664.664 0 00.943 0l7.333-7.333a.667.667 0 00-.943-.943z" fill="#FF5A30"/></svg>