<svg width="24" height="24" fill="none" xmlns="http://www.w3.org/2000/svg"><g clip-path="url(#clip0_1522:492)"><path fill-rule="evenodd" clip-rule="evenodd" d="M18.43 3.935a4.625 4.625 0 00-6.54 0l-6.342 6.341a1 1 0 01-1.414-1.414l6.342-6.341a6.625 6.625 0 119.369 9.369l-8.531 8.53a4.75 4.75 0 11-6.718-6.717l.004-.004 6.44-6.37.003-.003c1.098-1.096 2.882-1.179 4.029-.032a2.875 2.875 0 010 4.065l-4.508 4.508a1 1 0 01-1.414-1.414l4.508-4.508a.875.875 0 000-1.237c-.318-.318-.837-.332-1.203.034l-.004.004-6.44 6.371-.002.002a2.75 2.75 0 003.89 3.887l8.531-8.53a4.625 4.625 0 000-6.541z" fill="#FF5A30"/></g><defs><clipPath id="clip0_1522:492"><path fill="#fff" d="M0 0h24v24H0z"/></clipPath></defs></svg>