<svg width="48" height="48" fill="none" xmlns="http://www.w3.org/2000/svg"><path d="M39.563 4.219A4.224 4.224 0 0035.343 0H7.22A4.224 4.224 0 003 4.219v8.437a4.224 4.224 0 004.219 4.219h28.125a4.224 4.224 0 004.218-4.219V11.25h1.407c.775 0 1.406.631 1.406 1.406v5.625c0 .776-.631 1.407-1.406 1.407H24.094a4.224 4.224 0 00-4.219 4.218v4.219h-1.406c-.777 0-1.407.63-1.407 1.406v5.549l-1.406 5.715C14.742 44.453 17.506 48 21.281 48c3.778 0 6.539-3.55 5.627-7.2L25.5 35.08V29.53c0-.776-.63-1.406-1.406-1.406h-1.407v-4.219c0-.775.631-1.406 1.407-1.406h16.875a4.224 4.224 0 004.218-4.219v-5.625a4.224 4.224 0 00-4.218-4.219h-1.407V4.22zM22.686 30.937v2.907h-2.812v-2.907h2.813zm-1.406 14.25a2.985 2.985 0 01-2.895-3.714l1.185-4.817h3.42l1.187 4.822a2.985 2.985 0 01-2.897 3.71zM7.22 2.813h28.125c.775 0 1.406.63 1.406 1.406v1.406h-4.219c-1.366 0-3.114.512-5.138 1.104-2.733.801-5.83 1.708-8.924 1.708-3.016 0-5.142-.88-7.017-1.657-1.434-.594-2.789-1.155-4.233-1.155H5.812V4.219c0-.776.631-1.407 1.407-1.407zm29.531 9.843c0 .775-.631 1.406-1.406 1.406H7.219a1.408 1.408 0 01-1.407-1.406V8.437H7.22c.885 0 1.888.416 3.157.941 2.013.834 4.518 1.872 8.093 1.872 3.497 0 6.944-1.01 9.715-1.821 1.74-.51 3.384-.992 4.347-.992h4.219v4.22z" fill="#9A9CA5"/></svg>