<svg width="48" height="48" fill="none" xmlns="http://www.w3.org/2000/svg"><path d="M45.188 34.086v-4.461c0-4.63-1.494-9.031-4.318-12.727a21.497 21.497 0 00-9.844-7.166 4.224 4.224 0 00-4.213-4.013h-5.625a4.224 4.224 0 00-4.214 4.013 21.497 21.497 0 00-9.844 7.166c-2.825 3.696-4.317 8.097-4.317 12.727v4.46A4.225 4.225 0 000 38.063a4.224 4.224 0 004.219 4.22H43.78A4.223 4.223 0 0048 38.061a4.225 4.225 0 00-2.813-3.976zM5.624 29.625c0-5.071 2.166-9.818 5.719-13.205v4.767a1.406 1.406 0 002.812 0v-6.973a18.292 18.292 0 012.813-1.47V24a1.406 1.406 0 002.812 0V10.775v-.837c0-.776.631-1.407 1.407-1.407h5.625c.775 0 1.406.631 1.406 1.406V24a1.406 1.406 0 002.812 0V12.744c.987.411 1.927.905 2.813 1.47v6.973a1.406 1.406 0 002.812 0V16.42c3.553 3.387 5.719 8.134 5.719 13.205v4.219H5.625v-4.219zm38.156 9.844H4.22a1.408 1.408 0 010-2.813H43.78a1.408 1.408 0 010 2.813z" fill="#9A9CA5"/></svg>