<svg width="49" height="48" fill="none" xmlns="http://www.w3.org/2000/svg"><g clip-path="url(#clip0_1499:1692)" fill="#9A9CA5"><path d="M10.438 33.844a4.224 4.224 0 00-4.22 4.218 4.224 4.224 0 004.22 4.22 4.223 4.223 0 004.218-4.22 4.223 4.223 0 00-4.219-4.218zm0 5.625a1.408 1.408 0 010-2.813c.775 0 1.406.631 1.406 1.407 0 .775-.631 1.406-1.406 1.406z"/><path d="M45.962 28.569a4.22 4.22 0 00.264-4.62l-5.623-9.831c-.972-1.684-3.023-2.453-4.852-1.964a4.227 4.227 0 00-2.009-4.573L24 1.957a4.222 4.222 0 00-4.334.07A4.22 4.22 0 0016.062 0H4.72A4.224 4.224 0 00.5 4.219V43.78A4.224 4.224 0 004.719 48H44.28a4.224 4.224 0 004.219-4.219V32.438a4.224 4.224 0 00-2.538-3.869zM17.469 43.781c0 .776-.631 1.407-1.407 1.407H4.72c-.776 0-1.407-.631-1.407-1.407v-12.75H17.47v12.75zm0-15.562H3.312V16.875H17.47v11.344zm0-14.157H3.312V4.22c0-.776.631-1.407 1.407-1.407h11.343c.776 0 1.407.631 1.407 1.407v9.843zm2.812-8.477l.391-.678a1.408 1.408 0 011.922-.515l9.742 5.625c.672.388.903 1.25.514 1.923l-1.625 2.825c-.04.06-.077.122-.108.187L20.28 33.787V5.584zm0 33.842l13.146-22.85 2.718-1.57c.69-.397 1.634-.156 2.02.512l5.622 9.832a1.411 1.411 0 01-.518 1.93c-1.005.58-21.999 12.735-22.988 13.308v-1.162zm25.407 4.354c0 .776-.631 1.407-1.407 1.407H20.04c.15-.423.234-.877.24-1.349l22.124-12.808h1.878c.776 0 1.407.631 1.407 1.407V43.78z"/></g><defs><clipPath id="clip0_1499:1692"><path fill="#fff" transform="translate(.5)" d="M0 0h48v48H0z"/></clipPath></defs></svg>