<svg width="100" height="68" fill="none" xmlns="http://www.w3.org/2000/svg"><path fill-rule="evenodd" clip-rule="evenodd" d="M72.1 65.9c-1.2-2.2 3.8-6.1 5.3-8-6.5.2-.3-3.8 3.3-1.8 0 1.3-7.6 9.7-8.6 9.8zm-3.2-2.3c2.3-.8 7.5-11.4 2.2-6.6.1 2-4.3 4.2-2.2 6.6zm29.9-30c0 9.8-21.5 17.7-29.1 17.8-3.1 3.1-7.8 14.9-12.9 15.9-2.3-3.6 6.7-15.5 10.1-18.6 0-1.5-4.6.7-2.9-3.8-2 .4-9.2 6.7-8.6 0-3.6 2.2-10 6.9-13.4 2.5-2.1.2-8.6 5.9-9.1.2-3 2.1-2.5 1.9-5.3 1.9-4.8 3.1-19.4 11.9-19.4-.3C11.4 37.5 3.3 54.5 1 48c0-4.9 16.4-27.1 19.3-25 0 1.3-8.5 9.5-10 11.2C9.8 35 .6 47.6 3 47.9c8.4-4.4 11.2-13.8 18.3-18.8 4.4.6-2.3 5.5-4 7.5-3.2 2.3-11.9 14.2-5.3 17.5 6.5 0 10.3-3.5 15.6-6.2 2.8-4.4 6.2-7.4 10.2-10.2 8.5-3.9 14.6-15.1 18.8-23.3 1.2-4 2.7-7.3.2-10.9C46.9-3.9 26.9 7.6 19.2 14c-.8-1 8.4-7.7 10.6-8 4.8-3.7 14.6-6 20.9-6C70.9 2.7 50 29.4 43 36.4c0 .6 1.7 2.1-.5 1.2-1.3.1-8.7 9.5-7.9 11 7.6 0 8-8.3 12.8-12.3.2-1.3 8.4-8.4 9.9-4.5-.5 5-10.4 11.6-14 14.4 0 5.1 12.1-3.1 13.2-3.7.4-.6 6.2-7.5 6.2-7.5-4.6-1.4-3.3-2.5 1.1-1.3 2.2-.4 3.4-4.7 6.1-3.2 0 3-6.8 5.7 4 3.8.8-.8 5.1-4.8 4.9-1.5-3.2 2.7 7.7.1 9.4-1.8 4.2 2.7-10.4 4.4-12.4 4.6-2 1.3-11 8.4-10.6 11.3 4.2 0 10.4-7.1 13.5-9.8.9-.1 1.2.7 2.1.5 3.4-2.6 15-9.4 18-4zM44 43.8c2.3-1.3 12.1-9 11.8-11.6-2.8-.3-12.7 9.4-11.8 11.6zm-10.1-.9c.3-.2.6-.3 1-.5 1.4-1.9-.7-.4-1 .5zm28.4-5.2c.7-.7 1.5-1.4 2.2-2-.3-.8-2 1.4-2.2 2zm7 .6c4.6-3.2 1.7-2.5-3.1-2.6-2.6 2.6-9.5 6.9-9.3 11 4.2-.7 9.8-5.2 12.4-8.4zm-1 12.7c-.8-4.7-9.7 11.4-10.3 13.9 4.2-4 7.2-9.2 10.3-13.9zm2.2-4c-.6.5-2.2 1.5-1.5 2.4.5-.5 1.5-1.7 1.5-2.4zm26.4-13.7c-7.4-2.3-24.3 9.6-26.3 16.9C78 49.8 85.7 45 92 41.4c1.4-1.3 7.4-6.1 4.9-8.1z" fill="#FF5A30"/></svg>